Coordinates
version=1
nRows=5
nColumns=40
inDegrees=yes

Units are S.I. units (second, meters, Newtons, ...)
If the header above contains a line with 'inDegrees', this indicates whether rotational values are in degrees (yes) or radians (no).

endheader
time	pelvis_tilt	pelvis_list	pelvis_rotation	pelvis_tx	pelvis_ty	pelvis_tz	hip_flexion_r	hip_adduction_r	hip_rotation_r	knee_angle_r	knee_angle_r_beta	ankle_angle_r	subtalar_angle_r	mtp_angle_r	hip_flexion_l	hip_adduction_l	hip_rotation_l	knee_angle_l	knee_angle_l_beta	ankle_angle_l	subtalar_angle_l	mtp_angle_l	lumbar_extension	lumbar_bending	lumbar_rotation	arm_flex_r	arm_add_r	arm_rot_r	elbow_flex_r	pro_sup_r	wrist_flex_r	wrist_dev_r	arm_flex_l	arm_add_l	arm_rot_l	elbow_flex_l	pro_sup_l	wrist_flex_l	wrist_dev_l
      4.00000000	    -16.53617433	      2.68119817	     -2.30986018	     -0.27599159	      0.89840385	     -0.93848947	     38.55832578	    -13.31406175	     -8.41660391	     38.78566467	      0.67693755	     -4.53177269	      0.00000000	      0.00000000	     33.97937490	     -6.23532908	     -8.16121725	     35.08725194	      0.61238807	      1.90216296	      0.00000000	      0.00000000	    -10.56172779	     -1.19728615	     -4.85693942	    -19.38086373	    -60.14750922	     42.12470906	    108.85947789	     87.19718410	      0.00000000	      0.00000000	    -30.52962455	    -56.22840051	     36.48052365	    105.43513196	     87.33710039	      0.00000000	      0.00000000
      4.00500000	    -16.13677984	      2.42631604	     -2.21208599	     -0.27188487	      0.91075318	     -0.93833818	     36.04995196	    -12.87020413	     -9.51909614	     35.21520367	      0.61462125	     -7.84909992	      0.00000000	      0.00000000	     31.71370680	     -6.07604069	     -8.13359729	     31.52841122	      0.55027458	     -1.68462700	      0.00000000	      0.00000000	    -10.23195670	     -0.92306540	     -5.08634782	    -19.45941660	    -60.08067354	     41.93748794	    108.73597443	     87.21545009	      0.00000000	      0.00000000	    -30.75028716	    -55.90379795	     36.41337913	    104.86806967	     87.34826216	      0.00000000	      0.00000000
      4.01000000	    -16.05234822	      2.02040208	     -2.09777341	     -0.26804568	      0.92296008	     -0.93818109	     33.82785859	    -12.12882346	    -10.38831018	     31.42604442	      0.54848795	    -11.57813449	      0.00000000	      0.00000000	     29.86980240	     -6.05331069	     -7.89249186	     27.98641781	      0.48845514	     -5.93373566	      0.00000000	      0.00000000	     -9.58227998	     -0.48175746	     -5.30612982	    -19.59495163	    -59.95105579	     41.74154805	    108.51350557	     87.20245935	      0.00000000	      0.00000000	    -30.85873735	    -55.36198156	     36.38323642	    104.08685722	     87.32391452	      0.00000000	      0.00000000
      4.01500000	    -15.70418837	      1.71652704	     -2.01478953	     -0.26365462	      0.93560252	     -0.93809603	     31.30564600	    -11.48756597	    -11.40653921	     27.50282032	      0.48001477	    -15.93897053	      0.00000000	      0.00000000	     27.57925570	     -5.93581636	     -7.87713015	     24.14538246	      0.42141642	    -10.36575900	      0.00000000	      0.00000000	     -9.20504813	     -0.16181886	     -5.51344657	    -19.75043279	    -59.64293355	     41.52972232	    108.10615270	     87.20231082	      0.00000000	      0.00000000	    -30.88145103	    -54.74519036	     36.42086831	    103.23713257	     87.32199337	      0.00000000	      0.00000000
      4.02000000	    -15.25530181	      1.41911639	     -1.90646824	     -0.25969381	      0.94854551	     -0.93787986	     28.72074386	    -10.75535338	    -12.19661058	     23.47193879	      0.40966261	    -20.49570057	      0.00000000	      0.00000000	     25.22305396	     -5.78404425	     -7.65734387	     20.13361821	      0.35139793	    -15.50106494	      0.00000000	      0.00000000	     -9.02724128	      0.12308502	     -5.75580250	    -19.76307278	    -59.27379454	     41.28233595	    107.69168475	     87.20038164	      0.00000000	      0.00000000	    -30.63624133	    -54.26868527	     36.75768527	    102.38685565	     87.33434125	      0.00000000	      0.00000000
